<svg width="19" height="18" viewBox="0 0 19 18" fill="none" xmlns="http://www.w3.org/2000/svg">
<path d="M13.4187 0C15.0021 0 16.3283 0.585833 17.3973 1.7575C18.4664 2.92917 19.0006 4.3225 19 5.9375C19 6.2225 18.9842 6.5037 18.9525 6.7811C18.9208 7.0585 18.8654 7.33147 18.7862 7.6H12.8487L11.2337 5.1775C11.1546 5.05083 11.0438 4.94792 10.9013 4.86875C10.7588 4.78958 10.6083 4.75 10.45 4.75C10.2442 4.75 10.0583 4.81333 9.89235 4.94C9.72642 5.06667 9.61147 5.225 9.5475 5.415L8.265 9.2625L7.43375 8.0275C7.35458 7.90083 7.24375 7.79792 7.10125 7.71875C6.95875 7.63958 6.80833 7.6 6.65 7.6H0.21375C0.134583 7.33083 0.0791666 7.05787 0.0475 6.7811C0.0158333 6.50433 0 6.23105 0 5.96125C0 4.33042 0.530417 2.92917 1.59125 1.7575C2.65208 0.585833 3.97417 0 5.5575 0C6.3175 0 7.03412 0.150417 7.70735 0.45125C8.38058 0.752083 8.97813 1.17167 9.5 1.71C10.0067 1.17167 10.5966 0.752083 11.2698 0.45125C11.9431 0.150417 12.6594 0 13.4187 0ZM9.5 17.1C9.215 17.1 8.94203 17.0487 8.6811 16.9461C8.42017 16.8435 8.18647 16.689 7.98 16.4825L1.615 10.0938C1.52 9.99875 1.43292 9.90375 1.35375 9.80875C1.27458 9.71375 1.19542 9.61083 1.11625 9.5H6.1275L7.7425 11.9225C7.82167 12.0492 7.9325 12.1521 8.075 12.2313C8.2175 12.3104 8.36792 12.35 8.52625 12.35C8.73208 12.35 8.92208 12.2867 9.09625 12.16C9.27042 12.0333 9.38917 11.875 9.4525 11.685L10.735 7.8375L11.5425 9.0725C11.6375 9.19917 11.7562 9.30208 11.8987 9.38125C12.0412 9.46042 12.1917 9.5 12.35 9.5H17.86L17.6225 9.785L17.385 10.07L10.9962 16.4825C10.7904 16.6883 10.5608 16.8429 10.3075 16.9461C10.0542 17.0493 9.785 17.1006 9.5 17.1Z" fill="#E4007C"/>
</svg>
