<svg width="17" height="24" viewBox="0 0 17 24" fill="none" xmlns="http://www.w3.org/2000/svg">
<path fill-rule="evenodd" clip-rule="evenodd" d="M8.41213 5.39995C9.12821 5.39995 9.81496 5.11549 10.3213 4.60914C10.8276 4.1028 11.1121 3.41605 11.1121 2.69997C11.1121 1.9839 10.8276 1.29715 10.3213 0.790804C9.81496 0.284461 9.12821 0 8.41213 0C7.69605 0 7.0093 0.284461 6.50296 0.790804C5.99662 1.29715 5.71215 1.9839 5.71215 2.69997C5.71215 3.41605 5.99662 4.1028 6.50296 4.60914C7.0093 5.11549 7.69605 5.39995 8.41213 5.39995ZM16.764 6.86393C16.8532 7.16946 16.8173 7.49787 16.6642 7.77693C16.5112 8.05598 16.2536 8.26281 15.9481 8.35192C14.5225 8.76712 13.2349 9.08031 12.0121 9.28851V22.7998C12.0125 23.1089 11.8935 23.4062 11.6801 23.6297C11.4667 23.8533 11.1752 23.9859 10.8665 23.9999C10.5577 24.0139 10.2554 23.9082 10.0226 23.7049C9.78987 23.5016 9.64453 23.2162 9.61692 22.9084L9.01692 16.3084C9.01368 16.2723 9.01208 16.2361 9.01212 16.1998H7.81213C7.81218 16.2361 7.81057 16.2723 7.80734 16.3084L7.20734 22.9084C7.17973 23.2162 7.03439 23.5016 6.80161 23.7049C6.56883 23.9082 6.26657 24.0139 5.9578 23.9999C5.64903 23.9859 5.35757 23.8533 5.14415 23.6297C4.93073 23.4062 4.81181 23.1089 4.81216 22.7998V9.26631C3.59238 9.05631 2.30959 8.74972 0.891201 8.35612C0.737893 8.31529 0.594202 8.24447 0.468441 8.14776C0.34268 8.05104 0.237347 7.93034 0.158535 7.79265C0.0797232 7.65496 0.028997 7.50301 0.0092919 7.34559C-0.0104132 7.18816 0.00129392 7.0284 0.0437354 6.87553C0.0861769 6.72266 0.15851 6.57972 0.256551 6.45499C0.354592 6.33026 0.476394 6.2262 0.614909 6.14885C0.753425 6.0715 0.905905 6.02238 1.06353 6.00434C1.22115 5.9863 1.38078 5.99969 1.53319 6.04374C4.29797 6.81053 6.37515 7.19093 8.41753 7.19993C10.4551 7.20893 12.5275 6.84893 15.2761 6.04794C15.5816 5.95883 15.91 5.99474 16.1891 6.14777C16.4681 6.30079 16.6749 6.55841 16.764 6.86393Z" fill="#E4007C"/>
</svg>
