<svg width="24" height="28" viewBox="0 0 24 28" fill="none" xmlns="http://www.w3.org/2000/svg">
<path d="M24 6.00001C24 8.57334 21.9067 10.6667 19.3333 10.6667C16.76 10.6667 14.6667 8.57334 14.6667 6.00001C14.6667 3.42667 16.76 1.33334 19.3333 1.33334C21.9067 1.33334 24 3.42667 24 6.00001ZM21.3333 13.0533C20.6667 13.2267 20 13.3333 19.3333 13.3333C17.3895 13.3298 15.5263 12.5561 14.1518 11.1816C12.7773 9.80706 12.0035 7.94384 12 6.00001C12 4.04001 12.7733 2.26667 14 0.946674C13.758 0.650061 13.4529 0.411167 13.1069 0.247399C12.761 0.0836308 12.3828 -0.000886006 12 7.00358e-06C10.5333 7.00358e-06 9.33333 1.20001 9.33333 2.66667V3.05334C5.37333 4.22667 2.66667 7.86667 2.66667 12V20L0 22.6667V24H24V22.6667L21.3333 20V13.0533ZM12 28C13.48 28 14.6667 26.8133 14.6667 25.3333H9.33333C9.33333 26.0406 9.61429 26.7189 10.1144 27.219C10.6145 27.719 11.2928 28 12 28Z" fill="#005F6B"/>
</svg>
