<svg width="40" height="40" viewBox="0 0 40 40" fill="none" xmlns="http://www.w3.org/2000/svg">
<path d="M37.2093 20C37.2093 24.5642 35.3962 28.9414 32.1688 32.1688C28.9414 35.3962 24.5642 37.2093 20 37.2093V40C31.0456 40 40 31.0456 40 20H37.2093ZM20 37.2093C15.4358 37.2093 11.0586 35.3962 7.83119 32.1688C4.60382 28.9414 2.7907 24.5642 2.7907 20H0C0 31.0456 8.95442 40 20 40V37.2093ZM2.7907 20C2.7907 15.4358 4.60382 11.0586 7.83119 7.83119C11.0586 4.60382 15.4358 2.7907 20 2.7907V0C8.95442 0 0 8.95442 0 20H2.7907ZM26.5116 24.186C23.6744 24.186 20.9534 23.059 18.9472 21.0528C16.941 19.0466 15.814 16.3256 15.814 13.4884H13.0233C13.0233 17.0657 14.4443 20.4965 16.9739 23.0261C19.5035 25.5557 22.9343 26.9767 26.5116 26.9767V24.186ZM35.6744 19.0121C34.7224 20.591 33.3786 21.897 31.7732 22.8036C30.1678 23.7101 28.3553 24.1863 26.5116 24.186V26.9767C28.8361 26.9774 31.1212 26.3774 33.1455 25.2349C35.1698 24.0924 36.8644 22.4461 38.0651 20.4558L35.6744 19.0121ZM15.814 13.4884C15.8137 11.6447 16.2899 9.83225 17.1964 8.22684C18.103 6.62143 19.409 5.27756 20.9879 4.32558L19.5442 1.93674C17.5541 3.13727 15.9081 4.83164 14.7656 6.85555C13.6231 8.87946 13.0229 11.1643 13.0233 13.4884H15.814ZM20 2.7907C19.9065 2.7889 19.8143 2.76857 19.7287 2.73089C19.6431 2.6932 19.5659 2.63891 19.5014 2.57116C19.423 2.49238 19.3698 2.39196 19.3488 2.28279C19.3414 2.22512 19.3451 2.05767 19.5442 1.93674L20.9879 4.32558C21.9237 3.76 22.2251 2.72372 22.1153 1.90884C22 1.06233 21.334 0 20 0V2.7907ZM38.0651 20.4558C37.9423 20.6549 37.7749 20.6586 37.7172 20.6512C37.608 20.6302 37.5076 20.577 37.4288 20.4986C37.3611 20.4341 37.3068 20.3569 37.2691 20.2713C37.2314 20.1857 37.2111 20.0935 37.2093 20H40C40 18.666 38.9377 18 38.0912 17.8847C37.2763 17.7749 36.24 18.0763 35.6744 19.0121L38.0651 20.4558Z" fill="#FB8235"/>
</svg>
