<svg width="27" height="36" viewBox="0 0 27 36" fill="none" xmlns="http://www.w3.org/2000/svg">
<path d="M17.6833 6.66667C19.5 6.66667 21.0167 5.13333 21.0167 3.33333C21.0167 2.44928 20.6655 1.60143 20.0404 0.976311C19.4152 0.351189 18.5674 0 17.6833 0C15.8333 0 14.35 1.46667 14.35 3.33333C14.35 5.13333 15.8333 6.66667 17.6833 6.66667ZM11.6667 29.8L13.3333 22.5L16.85 25.8333V35.8333H20.1833V23.3333L16.6667 20L17.6833 15C18.8253 16.3085 20.2343 17.3574 21.8154 18.0761C23.3965 18.7948 25.1132 19.1667 26.85 19.1667V15.8333C23.6667 15.8333 21.0167 14.1667 19.6667 11.8L18 9.16667C17.3333 8.13333 16.3333 7.5 15.1833 7.5C14.6667 7.5 14.35 7.63333 13.8333 7.63333L5.18333 11.3V19.1667H8.51667V13.4667L11.5 12.3L8.83333 25.8333L0.666666 24.1667L0 27.5L11.6667 29.8Z" fill="#005F6B"/>
</svg>
