<svg width="40" height="40" viewBox="0 0 40 40" fill="none" xmlns="http://www.w3.org/2000/svg">
<path d="M20 0C8.94 0 0 9 0 20C0 25.3043 2.10714 30.3914 5.85786 34.1421C7.71504 35.9993 9.91982 37.4725 12.3463 38.4776C14.7728 39.4827 17.3736 40 20 40C25.3043 40 30.3914 37.8929 34.1421 34.1421C37.8929 30.3914 40 25.3043 40 20C40 17.3736 39.4827 14.7728 38.4776 12.3463C37.4725 9.91982 35.9993 7.71504 34.1421 5.85786C32.285 4.00069 30.0802 2.5275 27.6537 1.52241C25.2272 0.517315 22.6264 0 20 0ZM27 12C27.7956 12 28.5587 12.3161 29.1213 12.8787C29.6839 13.4413 30 14.2044 30 15C30 15.7956 29.6839 16.5587 29.1213 17.1213C28.5587 17.6839 27.7956 18 27 18C26.2044 18 25.4413 17.6839 24.8787 17.1213C24.3161 16.5587 24 15.7956 24 15C24 14.2044 24.3161 13.4413 24.8787 12.8787C25.4413 12.3161 26.2044 12 27 12ZM13 12C13.7956 12 14.5587 12.3161 15.1213 12.8787C15.6839 13.4413 16 14.2044 16 15C16 15.7956 15.6839 16.5587 15.1213 17.1213C14.5587 17.6839 13.7956 18 13 18C12.2044 18 11.4413 17.6839 10.8787 17.1213C10.3161 16.5587 10 15.7956 10 15C10 14.2044 10.3161 13.4413 10.8787 12.8787C11.4413 12.3161 12.2044 12 13 12ZM20 31C15.34 31 11.38 28.08 9.78 24H30.22C28.6 28.08 24.66 31 20 31Z" fill="#E4007C"/>
</svg>
