<svg width="55" height="26" viewBox="0 0 55 26" fill="none" xmlns="http://www.w3.org/2000/svg">
<rect width="55" height="26" rx="13" fill="#EF463F"/>
<path d="M17.376 17.9999L16.6514 15.621H13.0078L12.2832 17.9999H10L13.5273 7.96475H16.1182L19.6592 17.9999H17.376ZM16.1455 13.8437L15.4209 11.5194C15.3753 11.3645 15.3138 11.1662 15.2363 10.9247C15.1634 10.6786 15.0882 10.4302 15.0107 10.1796C14.9378 9.92439 14.8786 9.70336 14.833 9.51651C14.7874 9.70336 14.7236 9.93578 14.6416 10.2138C14.5641 10.4872 14.4889 10.747 14.416 10.9931C14.3431 11.2392 14.2907 11.4146 14.2588 11.5194L13.541 13.8437H16.1455ZM20.9238 17.9999V8.00577H23.043V16.2499H27.0967V17.9999H20.9238ZM32.6953 17.9999H30.5762V9.76944H27.8623V8.00577H35.4092V9.76944H32.6953V17.9999ZM43.0654 17.9999L42.3408 15.621H38.6973L37.9727 17.9999H35.6895L39.2168 7.96475H41.8076L45.3486 17.9999H43.0654ZM41.835 13.8437L41.1104 11.5194C41.0648 11.3645 41.0033 11.1662 40.9258 10.9247C40.8529 10.6786 40.7777 10.4302 40.7002 10.1796C40.6273 9.92439 40.568 9.70336 40.5225 9.51651C40.4769 9.70336 40.4131 9.93578 40.3311 10.2138C40.2536 10.4872 40.1784 10.747 40.1055 10.9931C40.0326 11.2392 39.9801 11.4146 39.9482 11.5194L39.2305 13.8437H41.835Z" fill="white"/>
</svg>
