<svg width="65" height="26" viewBox="0 0 65 26" fill="none" xmlns="http://www.w3.org/2000/svg">
<rect width="65" height="26" rx="13" fill="#44B66C"/>
<path d="M12.2549 8.00586H15.3652C16.696 8.00586 17.7031 8.19271 18.3867 8.56641C19.0703 8.9401 19.4121 9.59635 19.4121 10.5352C19.4121 10.9134 19.3506 11.2552 19.2275 11.5605C19.109 11.8659 18.9359 12.1165 18.708 12.3125C18.4801 12.5085 18.2021 12.6361 17.874 12.6953V12.7637C18.2067 12.832 18.5075 12.9505 18.7764 13.1191C19.0452 13.2832 19.2594 13.5247 19.4189 13.8438C19.583 14.1582 19.665 14.5775 19.665 15.1016C19.665 15.7077 19.5169 16.2272 19.2207 16.6602C18.9245 17.0931 18.5007 17.4258 17.9492 17.6582C17.4023 17.8861 16.7507 18 15.9941 18H12.2549V8.00586ZM14.374 11.9639H15.6045C16.2197 11.9639 16.6458 11.8682 16.8828 11.6768C17.1198 11.4808 17.2383 11.1937 17.2383 10.8154C17.2383 10.4326 17.097 10.1592 16.8145 9.99512C16.5365 9.8265 16.0944 9.74219 15.4883 9.74219H14.374V11.9639ZM14.374 13.6455V16.25H15.7549C16.3929 16.25 16.8372 16.127 17.0879 15.8809C17.3385 15.6348 17.4639 15.3044 17.4639 14.8896C17.4639 14.6436 17.4092 14.4271 17.2998 14.2402C17.1904 14.0534 17.0059 13.9076 16.7461 13.8027C16.4909 13.6979 16.1377 13.6455 15.6865 13.6455H14.374ZM27.7793 18L27.0547 15.6211H23.4111L22.6865 18H20.4033L23.9307 7.96484H26.5215L30.0625 18H27.7793ZM26.5488 13.8438L25.8242 11.5195C25.7786 11.3646 25.7171 11.1663 25.6396 10.9248C25.5667 10.6787 25.4915 10.4303 25.4141 10.1797C25.3411 9.92448 25.2819 9.70345 25.2363 9.5166C25.1908 9.70345 25.127 9.93587 25.0449 10.2139C24.9674 10.4873 24.8923 10.7471 24.8193 10.9932C24.7464 11.2393 24.694 11.4147 24.6621 11.5195L23.9443 13.8438H26.5488ZM31.3271 18V8.00586H33.4463V18H31.3271ZM44.042 18H41.6221L39.2979 14.2197L36.9736 18H34.7041L38.0195 12.8457L34.916 8.00586H37.2539L39.4072 11.6016L41.5195 8.00586H43.8027L40.665 12.9619L44.042 18ZM51.418 18L50.6934 15.6211H47.0498L46.3252 18H44.042L47.5693 7.96484H50.1602L53.7012 18H51.418ZM50.1875 13.8438L49.4629 11.5195C49.4173 11.3646 49.3558 11.1663 49.2783 10.9248C49.2054 10.6787 49.1302 10.4303 49.0527 10.1797C48.9798 9.92448 48.9206 9.70345 48.875 9.5166C48.8294 9.70345 48.7656 9.93587 48.6836 10.2139C48.6061 10.4873 48.5309 10.7471 48.458 10.9932C48.3851 11.2393 48.3327 11.4147 48.3008 11.5195L47.583 13.8438H50.1875Z" fill="white"/>
</svg>
