<svg width="26" height="26" viewBox="0 0 26 26" fill="none" xmlns="http://www.w3.org/2000/svg">
<path d="M6.75096 15.1498C6.22713 15.1506 5.70978 15.2657 5.23502 15.4871C4.76026 15.7084 4.33952 16.0307 4.00218 16.4315C3.66483 16.8322 3.419 17.3017 3.28185 17.8073C3.14469 18.3128 3.11951 18.8422 3.20807 19.3585C3.29663 19.8748 3.49679 20.3656 3.79458 20.7965C4.09237 21.2275 4.48062 21.5882 4.93223 21.8537C5.38384 22.1191 5.88793 22.2827 6.40932 22.3332C6.93071 22.3837 7.45684 22.3198 7.95098 22.146" stroke="#2D2D2D" stroke-width="1.5" stroke-linecap="round" stroke-linejoin="round"/>
<path d="M3.46792 17.0758C2.74978 16.7301 2.12904 16.211 1.66171 15.5653C1.19438 14.9197 0.895174 14.1679 0.7911 13.3776C0.687025 12.5874 0.781356 11.7838 1.06558 11.0391C1.3498 10.2945 1.81497 9.63236 2.4191 9.11248M2.4551 9.01528C2.06155 8.42636 1.88905 7.7172 1.96816 7.01332C2.04726 6.30943 2.37287 5.65624 2.88732 5.16938C3.40178 4.68251 4.07191 4.39337 4.77908 4.35315C5.48625 4.31292 6.18484 4.52421 6.75119 4.9496M7.0368 5.0276C6.84536 4.62084 6.74779 4.17627 6.75128 3.72673C6.75478 3.27719 6.85926 2.83418 7.057 2.43045C7.25474 2.02673 7.54068 1.6726 7.89369 1.39425C8.24671 1.1159 8.65776 0.920442 9.09648 0.822325C9.53519 0.724209 9.99035 0.725942 10.4283 0.827396C10.8663 0.928851 11.2758 1.12743 11.6267 1.40846C11.9776 1.68949 12.2608 2.04579 12.4555 2.45101C12.6501 2.85623 12.7512 3.30002 12.7513 3.74957V22.35C12.7513 22.9865 12.4985 23.5969 12.0484 24.047C11.5983 24.4971 10.9878 24.75 10.3513 24.75C9.71473 24.75 9.10427 24.4971 8.65417 24.047C8.20408 23.5969 7.95122 22.9865 7.95122 22.35M12.7513 6.74963C12.7513 7.70443 13.1306 8.62012 13.8057 9.29527C14.4809 9.97041 15.3966 10.3497 16.3514 10.3497M18.7514 15.1498C19.2753 15.1506 19.7926 15.2657 20.2674 15.487C20.7421 15.7084 21.1629 16.0307 21.5002 16.4314C21.8376 16.8322 22.0834 17.3017 22.2205 17.8073C22.3577 18.3128 22.3829 18.8422 22.2943 19.3585C22.2058 19.8748 22.0056 20.3655 21.7078 20.7965C21.41 21.2274 21.0218 21.5882 20.5702 21.8536C20.1186 22.119 19.6145 22.2827 19.0931 22.3332C18.5717 22.3837 18.0456 22.3198 17.5514 22.1459" stroke="#2D2D2D" stroke-width="1.5" stroke-linecap="round" stroke-linejoin="round"/>
<path d="M22.0344 17.0758C22.7525 16.7301 23.3733 16.211 23.8406 15.5653C24.3079 14.9197 24.6071 14.1679 24.7112 13.3776C24.8153 12.5874 24.7209 11.7838 24.4367 11.0391C24.1525 10.2945 23.6873 9.63236 23.0832 9.11248M23.0472 9.01528C23.4407 8.42636 23.6132 7.7172 23.5341 7.01332C23.455 6.30943 23.1294 5.65624 22.615 5.16938C22.1005 4.68251 21.4304 4.39337 20.7232 4.35315C20.016 4.31292 19.3174 4.52421 18.7511 4.9496M12.751 3.74957C12.751 3.30002 12.8522 2.85623 13.0468 2.45101C13.2415 2.04579 13.5247 1.68949 13.8756 1.40846C14.2265 1.12743 14.636 0.928851 15.074 0.827396C15.5119 0.725942 15.9671 0.724209 16.4058 0.822325C16.8445 0.920442 17.2556 1.1159 17.6086 1.39425C17.9616 1.6726 18.2476 2.02673 18.4453 2.43045C18.643 2.83418 18.7475 3.27719 18.751 3.72673C18.7545 4.17627 18.6569 4.62084 18.4655 5.0276M17.5511 22.35C17.5511 22.9865 17.2982 23.5969 16.8481 24.047C16.398 24.4971 15.7876 24.75 15.151 24.75C14.5145 24.75 13.904 24.4971 13.4539 24.047C13.0038 23.5969 12.751 22.9865 12.751 22.35" stroke="#2D2D2D" stroke-width="1.5" stroke-linecap="round" stroke-linejoin="round"/>
</svg>
