<svg width="24" height="21" viewBox="0 0 24 21" fill="none" xmlns="http://www.w3.org/2000/svg">
<path d="M12 21C11.7884 21 11.576 20.9583 11.3627 20.8748C11.1493 20.7921 10.9671 20.6678 10.816 20.5016L2.39467 12.2305C1.61689 11.4695 1.02311 10.6124 0.613333 9.65919C0.204444 8.70597 0 7.73014 0 6.73169C0 4.85917 0.599111 3.2693 1.79733 1.9621C2.99556 0.654905 4.46667 0.000869727 6.21067 0C7.12267 0 8 0.185687 8.84267 0.55706C9.68444 0.928434 10.4378 1.45027 11.1027 2.12257L12 3.05144L12.8467 2.17345C13.5231 1.46723 14.2867 0.928434 15.1373 0.55706C15.988 0.185687 16.8609 0 17.756 0C19.5 0 20.9769 0.654035 22.1867 1.9621C23.3964 3.27017 24.0009 4.84873 24 6.69777C24 7.71361 23.7942 8.69814 23.3827 9.65136C22.9702 10.6046 22.3778 11.4617 21.6053 12.2227L13.152 20.503C12.9822 20.6682 12.8009 20.7921 12.608 20.8748C12.4151 20.9574 12.2124 20.9987 12 20.9987M13.3333 5.97111C13.4533 5.97111 13.5618 5.99633 13.6587 6.04678C13.7564 6.09722 13.8351 6.16724 13.8947 6.25682L16.3413 9.88488H21.772C22.0813 9.38131 22.3133 8.85991 22.468 8.32068C22.6227 7.78145 22.6916 7.24091 22.6747 6.69907C22.6471 5.19879 22.1613 3.92725 21.2173 2.88445C20.2742 1.84078 19.1204 1.31894 17.756 1.31894C17.0333 1.31894 16.3298 1.46245 15.6453 1.74946C14.9609 2.03473 14.368 2.45263 13.8667 3.00317L12.6587 4.27514C12.5653 4.38821 12.464 4.46648 12.3547 4.50997C12.2453 4.55346 12.1271 4.57477 12 4.5739C11.8729 4.57303 11.7507 4.54737 11.6333 4.49692C11.516 4.44648 11.4076 4.37255 11.308 4.27514L10.1 3.00317C9.59956 2.45263 9.00844 2.03212 8.32667 1.74163C7.644 1.45027 6.93867 1.30459 6.21067 1.30459C4.84622 1.30459 3.69244 1.8286 2.74933 2.87662C1.80622 3.92464 1.33422 5.19879 1.33333 6.69907C1.33333 7.25744 1.40933 7.80232 1.56133 8.33373C1.71333 8.86513 1.93556 9.38218 2.228 9.88488H8C8.12 9.88488 8.22444 9.91011 8.31333 9.96055C8.40222 10.011 8.47645 10.081 8.536 10.1706L10.472 12.9963L12.708 6.43294C12.7622 6.28943 12.8422 6.17637 12.948 6.09374C13.0538 6.01112 13.1822 5.97024 13.3333 5.97111ZM13.528 8.07933L11.292 14.6414C11.2378 14.7858 11.1524 14.8989 11.036 14.9806C10.9196 15.0624 10.7853 15.1032 10.6333 15.1032C10.5142 15.1032 10.4102 15.078 10.3213 15.0276C10.2324 14.9771 10.1578 14.9071 10.0973 14.8175L7.62533 11.1895H3.22533L11.7667 19.5715C11.8111 19.615 11.8502 19.6424 11.884 19.6537C11.9178 19.665 11.9564 19.6702 12 19.6693C12.0436 19.6684 12.0827 19.6632 12.1173 19.6537C12.152 19.6441 12.1907 19.6167 12.2333 19.5715L20.7667 11.1895H16C15.8809 11.1895 15.7724 11.1603 15.6747 11.1021C15.5769 11.0438 15.4956 10.9694 15.4307 10.879L13.528 8.07933Z" fill="#2D2D2D"/>
</svg>
