<svg width="20" height="21" viewBox="0 0 20 21" fill="none" xmlns="http://www.w3.org/2000/svg">
<path fill-rule="evenodd" clip-rule="evenodd" d="M9.35331 1.08644C9.36543 1.4236 9.42907 1.62217 9.53088 1.74155C9.67937 1.91553 9.82785 1.97732 10.0036 1.99292C10.2091 2.01091 10.4703 1.96472 10.8163 1.85793C11.0141 1.79551 11.2103 1.72829 11.4048 1.65636C11.5721 1.59637 11.7497 1.53218 11.9266 1.47459C12.3175 1.34681 12.7648 1.22742 13.2175 1.22742C16.1284 1.22742 17.8551 3.4771 18.9921 5.48502C20.3884 7.95066 20.3296 11.0288 18.8424 13.4423C17.8642 15.0297 16.6139 16.4047 14.7181 17.1342C11.9685 18.193 8.93392 17.7833 6.43332 16.5612C5.87695 16.2889 5.22302 16.7076 5.22302 17.2403V21H4.0109V17.2403C4.0109 15.71 5.70786 14.8683 6.97028 15.485C9.23816 16.5936 11.9139 16.9266 14.2788 16.0159C15.8345 15.4172 16.9054 14.281 17.8078 12.8172C19.0666 10.7739 19.1169 8.15883 17.9351 6.07173C16.8121 4.08902 15.3951 2.42725 13.2181 2.42725C12.9636 2.42725 12.6666 2.49624 12.3066 2.61383C12.1472 2.66602 11.9866 2.72361 11.8169 2.7842L11.76 2.8052C11.5727 2.87179 11.3751 2.94198 11.1775 3.00317C10.7909 3.12255 10.3448 3.22694 9.89694 3.18794C9.41876 3.14595 8.96907 2.94378 8.60361 2.51424C8.23695 2.0835 8.15755 1.55078 8.1424 1.12844C8.13452 0.91187 8.14362 0.696501 8.15271 0.508127L8.15695 0.42414C8.16483 0.263962 8.17149 0.130182 8.17149 0.00599928L9.38361 0C9.38361 0.160177 9.37513 0.332352 9.36725 0.48953L9.36361 0.566319C9.35452 0.752293 9.34786 0.923868 9.35331 1.08644ZM4.15635 0.306556V0.00299964H5.36847V0.226768C5.36726 1.86333 5.36605 3.24314 6.13635 4.52815C6.6721 5.42203 7.46483 6.04834 8.36665 6.76103L8.76846 7.07959C9.86058 7.95426 10.0957 9.14149 9.7224 10.1811C9.36482 11.1806 8.4618 12.0079 7.3515 12.3228C6.75453 12.4914 6.18786 12.6168 5.67514 12.7302L5.32362 12.8082C4.71029 12.9461 4.18969 13.0781 3.72726 13.2677C2.85454 13.6247 2.14181 14.2048 1.5703 15.5912C1.33435 16.1646 1.21272 16.7778 1.21212 17.3969V21H0V17.3969C0 16.623 0.152121 15.8557 0.448484 15.1382C1.13636 13.4687 2.07878 12.6444 3.26363 12.1591C3.82908 11.9275 4.43756 11.7775 5.05393 11.6383L5.42423 11.5561C5.95934 11.443 6.49089 11.314 7.01816 11.1692C7.77392 10.955 8.36059 10.3929 8.58058 9.7798C8.78543 9.20749 8.68846 8.55898 8.00604 8.01245C7.8816 7.91327 7.75432 7.81268 7.62422 7.7107C6.73513 7.0112 5.7515 6.23851 5.09393 5.14067C4.14787 3.56229 4.15211 1.86933 4.15635 0.306556Z" fill="#2D2D2D"/>
</svg>
