<svg width="65" height="26" viewBox="0 0 65 26" fill="none" xmlns="http://www.w3.org/2000/svg">
<rect width="65" height="26" rx="13" fill="#F7CB58"/>
<path d="M14.4893 19L12.083 11.1592H12.0215C12.0306 11.346 12.0443 11.6286 12.0625 12.0068C12.0853 12.3805 12.1058 12.7793 12.124 13.2031C12.1423 13.627 12.1514 14.0098 12.1514 14.3516V19H10.2578V9.00586H13.1426L15.5078 16.6484H15.5488L18.0576 9.00586H20.9424V19H18.9668V14.2695C18.9668 13.9551 18.9714 13.5928 18.9805 13.1826C18.9941 12.7725 19.0101 12.3828 19.0283 12.0137C19.0465 11.64 19.0602 11.3597 19.0693 11.1729H19.0078L16.4307 19H14.4893ZM29.2207 19H23.4648V9.00586H29.2207V10.7422H25.584V12.9365H28.9678V14.6729H25.584V17.25H29.2207V19ZM29.1045 5.92285V6.06641C28.9723 6.19401 28.7992 6.35124 28.585 6.53809C28.3708 6.72493 28.1406 6.9209 27.8945 7.12598C27.6484 7.3265 27.4069 7.52018 27.1699 7.70703C26.9329 7.88932 26.7256 8.04199 26.5479 8.16504H25.1602V7.98047C25.3105 7.80729 25.4837 7.60221 25.6797 7.36523C25.8802 7.1237 26.0785 6.87533 26.2744 6.62012C26.4704 6.36491 26.6344 6.13249 26.7666 5.92285H29.1045ZM39.6045 13.9072C39.6045 15.0329 39.388 15.974 38.9551 16.7305C38.5267 17.4824 37.9046 18.0498 37.0889 18.4326C36.2731 18.8109 35.291 19 34.1426 19H31.3125V9.00586H34.4502C35.4984 9.00586 36.4076 9.19271 37.1777 9.56641C37.9479 9.93555 38.5449 10.4847 38.9688 11.2139C39.3926 11.9385 39.6045 12.8363 39.6045 13.9072ZM37.4033 13.9619C37.4033 13.2236 37.2939 12.6175 37.0752 12.1436C36.861 11.665 36.542 11.3118 36.1182 11.084C35.6989 10.8561 35.1794 10.7422 34.5596 10.7422H33.4316V17.25H34.3408C35.3753 17.25 36.1432 16.9743 36.6445 16.4229C37.1504 15.8714 37.4033 15.0511 37.4033 13.9619ZM41.6758 19V9.00586H43.7949V19H41.6758ZM52.4287 19L51.7041 16.6211H48.0605L47.3359 19H45.0527L48.5801 8.96484H51.1709L54.7119 19H52.4287ZM51.1982 14.8438L50.4736 12.5195C50.4281 12.3646 50.3665 12.1663 50.2891 11.9248C50.2161 11.6787 50.141 11.4303 50.0635 11.1797C49.9906 10.9245 49.9313 10.7035 49.8857 10.5166C49.8402 10.7035 49.7764 10.9359 49.6943 11.2139C49.6169 11.4873 49.5417 11.7471 49.4688 11.9932C49.3958 12.2393 49.3434 12.4147 49.3115 12.5195L48.5938 14.8438H51.1982Z" fill="#666666"/>
</svg>
