<svg width="17" height="21" viewBox="0 0 17 21" fill="none" xmlns="http://www.w3.org/2000/svg">
<path d="M16.7489 8.16453L8.54188 0L0.334873 8.16453C0.238042 8.23827 0.158185 8.33195 0.100707 8.43923C0.0432297 8.54651 0.00947369 8.66489 0.00172405 8.78636C-0.00602559 8.90782 0.0124126 9.02953 0.0557898 9.14324C0.0991671 9.25696 0.166471 9.36003 0.253145 9.44548C0.339819 9.53092 0.443839 9.59674 0.558164 9.63849C0.67249 9.68024 0.79445 9.69694 0.915789 9.68746C1.03713 9.67797 1.15501 9.64253 1.26146 9.58352C1.36791 9.52452 1.46044 9.44333 1.53279 9.34546L7.6923 3.23693V19.4895C7.6923 19.7149 7.78181 19.9309 7.94113 20.0903C8.10046 20.2496 8.31656 20.3391 8.54188 20.3391C8.76721 20.3391 8.9833 20.2496 9.14263 20.0903C9.30196 19.9309 9.39147 19.7149 9.39147 19.4895V3.23693L15.551 9.34546C15.711 9.50431 15.9275 9.59311 16.1529 9.59231C16.3784 9.59151 16.5943 9.50119 16.7531 9.34121C16.912 9.18123 17.0008 8.9647 17 8.73925C16.9992 8.5138 16.9089 8.2979 16.7489 8.13904V8.16453Z" fill="white"/>
</svg>
